<svg xmlns="http://www.w3.org/2000/svg" width="22.01" height="22.108" viewBox="0 0 22.01 22.108">
  <g id="brain" transform="translate(-0.995 -0.947)">
    <path id="Path_1" data-name="Path 1" d="M12,5a3,3,0,1,0-6,.125A4,4,0,0,0,3.477,10.9a4,4,0,0,0,.556,6.588A4,4,0,1,0,12,18Z" fill="none" stroke="#e34798" stroke-linecap="round" stroke-linejoin="round" stroke-width="2"/>
    <path id="Path_2" data-name="Path 2" d="M12,5a3,3,0,1,1,6,.125,4,4,0,0,1,2.526,5.77,4,4,0,0,1-.556,6.588A4,4,0,1,1,12,18Z" fill="none" stroke="#e34798" stroke-linecap="round" stroke-linejoin="round" stroke-width="2"/>
    <path id="Path_3" data-name="Path 3" d="M15,13a4.5,4.5,0,0,1-3-4,4.5,4.5,0,0,1-3,4" fill="none" stroke="#e34798" stroke-linecap="round" stroke-linejoin="round" stroke-width="2"/>
    <path id="Path_4" data-name="Path 4" d="M17.6,6.5A3,3,0,0,0,18,5.125" fill="none" stroke="#e34798" stroke-linecap="round" stroke-linejoin="round" stroke-width="2"/>
    <path id="Path_5" data-name="Path 5" d="M6,5.125A3,3,0,0,0,6.4,6.5" fill="none" stroke="#e34798" stroke-linecap="round" stroke-linejoin="round" stroke-width="2"/>
    <path id="Path_6" data-name="Path 6" d="M3.477,10.9a4,4,0,0,1,.585-.4" fill="none" stroke="#e34798" stroke-linecap="round" stroke-linejoin="round" stroke-width="2"/>
    <path id="Path_7" data-name="Path 7" d="M19.938,10.5a4,4,0,0,1,.585.4" fill="none" stroke="#e34798" stroke-linecap="round" stroke-linejoin="round" stroke-width="2"/>
    <path id="Path_8" data-name="Path 8" d="M6,18a4,4,0,0,1-1.967-.516" fill="none" stroke="#e34798" stroke-linecap="round" stroke-linejoin="round" stroke-width="2"/>
    <path id="Path_9" data-name="Path 9" d="M19.967,17.484A4,4,0,0,1,18,18" fill="none" stroke="#e34798" stroke-linecap="round" stroke-linejoin="round" stroke-width="2"/>
  </g>
</svg>
