<svg xmlns="http://www.w3.org/2000/svg" width="40" height="40" viewBox="0 0 40 40">
  <g id="Group_3" data-name="Group 3" transform="translate(1006 -372)">
    <rect id="Rectangle_1" data-name="Rectangle 1" width="40" height="40" rx="9" transform="translate(-1006 372)" fill="#fff"/>
    <path id="deepseek-color" d="M29.265,4.826c-.313-.153-.449.139-.631.288a1.446,1.446,0,0,0-.169.168,2.1,2.1,0,0,1-1.692.771A3.3,3.3,0,0,0,24.108,7.1a2.414,2.414,0,0,0-1.537-1.908,2.654,2.654,0,0,1-1.177-.8,3.235,3.235,0,0,1-.376-.954c-.068-.2-.136-.4-.361-.431-.246-.038-.343.168-.439.34a4.492,4.492,0,0,0-.52,2.267,4.9,4.9,0,0,0,2.265,4.181.313.313,0,0,1,.159.4c-.1.345-.222.68-.328,1.027-.068.221-.169.267-.405.173A6.81,6.81,0,0,1,19.25,9.937a33.646,33.646,0,0,0-3.2-3.029q-.414-.306-.849-.58a1.33,1.33,0,0,1,.478-2.263c.333-.121.115-.532-.96-.527a9.4,9.4,0,0,0-3.311.843,3.765,3.765,0,0,1-.573.169,11.826,11.826,0,0,0-3.553-.126A7.655,7.655,0,0,0,1.74,7.656,9.451,9.451,0,0,0,.187,15.138,11.439,11.439,0,0,0,4.328,22.1a11.06,11.06,0,0,0,7.934,2.637,9.383,9.383,0,0,0,6.154-2.292,5.759,5.759,0,0,0,2.194.489,7.131,7.131,0,0,0,2.1-.158c.906-.192.843-1.031.516-1.184-2.656-1.237-2.073-.733-2.6-1.141a13.866,13.866,0,0,0,4.18-8.63,5.141,5.141,0,0,0,0-1.041c0-.209.043-.292.283-.315a5.142,5.142,0,0,0,1.9-.585A5.04,5.04,0,0,0,29.569,5.55a.653.653,0,0,0-.3-.725ZM14.271,21.485c-2.574-2.023-3.823-2.69-4.338-2.662-.483.03-.4.58-.29.94a3.451,3.451,0,0,0,.457.911.47.47,0,0,1-.139.743c-.829.513-2.27-.173-2.338-.206a10.722,10.722,0,0,1-4.068-4.075,12.444,12.444,0,0,1-1.6-5.523c-.025-.476.115-.643.588-.73a5.787,5.787,0,0,1,1.884-.048,11.8,11.8,0,0,1,6.738,3.418,22.735,22.735,0,0,1,2.714,3.563,17.061,17.061,0,0,0,3.056,3.591,9.609,9.609,0,0,0,1.1.834,5.3,5.3,0,0,1-3.763-.757ZM15.5,13.548a.377.377,0,0,1,.511-.354.372.372,0,0,1,.246.355.378.378,0,1,1-.757,0Zm3.832,1.967a2.3,2.3,0,0,1-.727.2,1.534,1.534,0,0,1-.983-.313,1.473,1.473,0,0,1-.68-.934,2.132,2.132,0,0,1,.02-.725.807.807,0,0,0-.295-.9,1.273,1.273,0,0,0-.848-.245.689.689,0,0,1-.313-.1.311.311,0,0,1-.14-.441,1.435,1.435,0,0,1,.237-.259,1.607,1.607,0,0,1,1.412.02,4.086,4.086,0,0,1,1.234.964,7.928,7.928,0,0,1,.844,1.126,4.686,4.686,0,0,1,.548,1.045c.083.24-.023.436-.308.557Z" transform="translate(-1000.788 378.118)" fill="#4d6bfe"/>
  </g>
</svg>
