<svg xmlns="http://www.w3.org/2000/svg" width="18.784" height="18.371" viewBox="0 0 18.784 18.371">
  <path id="image-square-svgrepo-com" d="M14.264,15.938,12.6,14.283a4.989,4.989,0,0,0-1.669-1.343,2,2,0,0,0-1.246.014c-.459.156-.852.564-1.64,1.379l-4,3.948m10.22-2.343.341-.339a4.992,4.992,0,0,1,1.671-1.345,2,2,0,0,1,1.247.014c.459.156.853.565,1.64,1.383l.837.842m-5.736-.556,4.011,4.019m0,0A13.593,13.593,0,0,1,16.8,20H7.2a4.968,4.968,0,0,1-2.108-.218,2,2,0,0,1-.874-.874,1.845,1.845,0,0,1-.174-.628m14.231,1.676a1.85,1.85,0,0,0,.633-.174,2,2,0,0,0,.874-.874A4.968,4.968,0,0,0,20,16.8v-.307M4.044,18.28A13.489,13.489,0,0,1,4,16.8V7.2a4.969,4.969,0,0,1,.218-2.108,2,2,0,0,1,.874-.874A4.969,4.969,0,0,1,7.2,4h9.6a4.969,4.969,0,0,1,2.108.218,2,2,0,0,1,.874.874A4.968,4.968,0,0,1,20,7.2v9.293M17,9a2,2,0,1,1-2-2A2,2,0,0,1,17,9Z" transform="translate(-2.63 -3)" fill="none" stroke="#e34798" stroke-linecap="round" stroke-linejoin="round" stroke-width="2"/>
</svg>
