<svg xmlns="http://www.w3.org/2000/svg" width="40" height="40" viewBox="0 0 40 40">
  <g id="Group_1" data-name="Group 1" transform="translate(844 -368)">
    <rect id="Rectangle_1" data-name="Rectangle 1" width="40" height="40" rx="9" transform="translate(-844 368)" fill="#fff"/>
    <path id="openai-svgrepo-com" d="M27.8,12.27a7.477,7.477,0,0,0-.644-6.135,7.553,7.553,0,0,0-8.133-3.623A7.577,7.577,0,0,0,6.182,5.224,7.477,7.477,0,0,0,1.187,8.847a7.554,7.554,0,0,0,.928,8.866,7.471,7.471,0,0,0,.638,6.135,7.559,7.559,0,0,0,8.139,3.623,7.477,7.477,0,0,0,5.633,2.512,7.565,7.565,0,0,0,7.211-5.254,7.483,7.483,0,0,0,4.994-3.623A7.565,7.565,0,0,0,27.8,12.27ZM16.525,28.021a5.591,5.591,0,0,1-3.593-1.3l.177-.1,5.97-3.446a.993.993,0,0,0,.491-.851V13.907l2.524,1.46a.089.089,0,0,1,.047.065v6.974a5.627,5.627,0,0,1-5.615,5.615ZM4.456,22.867A5.585,5.585,0,0,1,3.788,19.1l.177.106,5.975,3.446a.963.963,0,0,0,.975,0l7.3-4.208V21.36a.1.1,0,0,1-.041.077l-6.046,3.487a5.621,5.621,0,0,1-7.672-2.057Zm-1.572-13A5.6,5.6,0,0,1,5.839,7.4v7.093a.957.957,0,0,0,.485.845l7.264,4.191-2.524,1.46a.1.1,0,0,1-.089,0L4.941,17.506A5.627,5.627,0,0,1,2.884,9.835Zm20.734,4.817L16.33,10.449l2.518-1.454a.1.1,0,0,1,.089,0l6.034,3.487a5.615,5.615,0,0,1-.845,10.125V15.514a.987.987,0,0,0-.508-.833ZM26.129,10.9l-.177-.106L19.988,7.323a.969.969,0,0,0-.981,0l-7.293,4.208V8.617a.083.083,0,0,1,.035-.077l6.034-3.481a5.621,5.621,0,0,1,8.346,5.822ZM10.337,16.07,7.813,14.616a.1.1,0,0,1-.047-.071V7.589A5.621,5.621,0,0,1,16.98,3.274l-.177.1L10.833,6.82a.993.993,0,0,0-.491.851Zm1.371-2.955,3.251-1.874,3.257,1.874v3.747L14.97,18.735l-3.257-1.874Z" transform="translate(-838.951 373.008)"/>
  </g>
</svg>
